<?xml version="1.0" encoding="UTF-8" standalone="no"?>
<!-- Generator: Adobe Illustrator 19.0.0, SVG Export Plug-In . SVG Version: 6.00 Build 0)  -->

<svg
   version="1.1"
   id="Layer_1"
   x="0px"
   y="0px"
   viewBox="0 0 436.369 436.369"
   style="enable-background:new 0 0 436.369 436.369;"
   xml:space="preserve"
   sodipodi:docname="astronaut.svg"
   inkscape:version="1.1.2 (b8e25be833, 2022-02-05)"
   xmlns:inkscape="http://www.inkscape.org/namespaces/inkscape"
   xmlns:sodipodi="http://sodipodi.sourceforge.net/DTD/sodipodi-0.dtd"
   xmlns="http://www.w3.org/2000/svg"
   xmlns:svg="http://www.w3.org/2000/svg"><defs
   id="defs385" /><sodipodi:namedview
   id="namedview383"
   pagecolor="#ffffff"
   bordercolor="#666666"
   borderopacity="1.0"
   inkscape:pageshadow="2"
   inkscape:pageopacity="0.0"
   inkscape:pagecheckerboard="0"
   showgrid="false"
   inkscape:zoom="0.92582195"
   inkscape:cx="325.65657"
   inkscape:cy="312.15505"
   inkscape:window-width="1920"
   inkscape:window-height="1017"
   inkscape:window-x="-8"
   inkscape:window-y="-8"
   inkscape:window-maximized="1"
   inkscape:current-layer="g350" />
<g
   id="g350">
	<g
   id="g336"
   transform="matrix(0.64151545,-0.57850911,0.54588043,0.67954401,-42.049783,215.30872)">
		<path
   style="fill:#e1f4f9"
   d="m 323.857,183.119 c 9.141,1.892 18.518,2.297 27.765,1.198 18.586,-2.197 36.585,-10.43 50.838,-24.683 33.709,-33.709 33.709,-88.37 0,-122.078 -33.717,-33.717 -88.37,-33.709 -122.078,0 -14.215,14.215 -22.432,32.152 -24.667,50.67 -1.114,9.293 -0.725,18.731 1.183,27.918"
   id="path198" />
		<path
   style="fill:#333333"
   d="m 341.417,189.922 c -6.223,0 -12.437,-0.637 -18.573,-1.907 l 2.027,-9.792 c 8.629,1.787 17.431,2.167 26.162,1.129 18.282,-2.162 34.842,-10.202 47.892,-23.253 15.359,-15.359 23.817,-35.781 23.817,-57.503 0,-21.723 -8.458,-42.145 -23.817,-57.504 -31.708,-31.707 -83.3,-31.708 -115.007,0 -13.003,13.003 -21.039,29.509 -23.239,47.734 -1.056,8.806 -0.681,17.657 1.114,26.302 l -9.791,2.033 c -2.016,-9.708 -2.437,-19.643 -1.251,-29.53 2.471,-20.473 11.495,-39.01 26.096,-53.611 35.607,-35.607 93.542,-35.606 129.149,0 17.248,17.248 26.746,40.181 26.746,64.575 0,24.394 -9.499,47.327 -26.746,64.575 -14.655,14.655 -33.254,23.685 -53.787,26.113 -3.591,0.426 -7.193,0.639 -10.792,0.639 z"
   id="path200" />
		<path
   style="fill:#ffffff"
   d="m 398.667,61.315 c -1.554,0 -3.084,-0.722 -4.062,-2.078 -2.053,-2.851 -4.364,-5.566 -6.868,-8.07 -4.103,-4.103 -8.708,-7.632 -13.688,-10.489 -2.395,-1.374 -3.223,-4.43 -1.849,-6.825 1.375,-2.395 4.43,-3.222 6.825,-1.849 5.746,3.297 11.056,7.365 15.783,12.092 2.883,2.884 5.544,6.011 7.911,9.297 1.614,2.241 1.105,5.366 -1.135,6.979 -0.884,0.636 -1.906,0.943 -2.917,0.943 z"
   id="path202" />
		<path
   style="fill:#ffffff"
   d="m 391.273,151.929 c -1.28,0 -2.559,-0.488 -3.536,-1.464 -1.953,-1.953 -1.953,-5.119 0,-7.071 18.9,-18.9 24.348,-48.025 13.557,-72.472 -1.115,-2.526 0.029,-5.478 2.555,-6.593 2.528,-1.115 5.479,0.029 6.593,2.555 6.06,13.729 7.866,28.824 5.223,43.655 -2.705,15.181 -9.917,28.987 -20.857,39.927 -0.976,0.975 -2.255,1.463 -3.535,1.463 z"
   id="path204" />
		<g
   id="g210">
			<circle
   style="fill:#f9e33d"
   cx="287.711"
   cy="74.901001"
   r="15.183"
   id="circle206" />
			<circle
   style="fill:#f9e33d"
   cx="365.116"
   cy="152.30499"
   r="15.183"
   id="circle208" />
		</g>
		<g
   id="g216">
			<path
   style="fill:#666666"
   d="m 287.711,95.084 c -5.391,0 -10.459,-2.099 -14.272,-5.911 -7.869,-7.87 -7.869,-20.674 0,-28.543 3.813,-3.812 8.881,-5.912 14.272,-5.912 5.391,0 10.459,2.099 14.271,5.912 3.812,3.812 5.912,8.88 5.912,14.272 0,5.391 -2.1,10.459 -5.912,14.272 v 0 c -3.812,3.81 -8.88,5.91 -14.271,5.91 z m 0,-30.367 c -2.72,0 -5.277,1.059 -7.201,2.983 -3.97,3.97 -3.97,10.431 0,14.401 1.923,1.923 4.48,2.982 7.201,2.982 2.72,0 5.277,-1.059 7.2,-2.982 v 0 c 1.924,-1.923 2.983,-4.48 2.983,-7.2 0,-2.72 -1.059,-5.277 -2.983,-7.201 -1.923,-1.924 -4.481,-2.983 -7.2,-2.983 z"
   id="path212" />
			<path
   style="fill:#666666"
   d="m 365.115,172.479 c -5.169,0 -10.336,-1.967 -14.271,-5.902 -3.812,-3.813 -5.912,-8.881 -5.912,-14.272 0,-5.391 2.1,-10.459 5.912,-14.271 3.812,-3.812 8.88,-5.912 14.271,-5.912 5.391,0 10.459,2.1 14.272,5.912 7.869,7.869 7.869,20.673 0,28.543 v 0 c -3.934,3.934 -9.104,5.902 -14.272,5.902 z m 0,-30.357 c -2.72,0 -5.277,1.059 -7.2,2.982 -1.924,1.924 -2.983,4.481 -2.983,7.201 0,2.72 1.059,5.277 2.983,7.201 3.971,3.97 10.431,3.971 14.401,0 3.97,-3.97 3.97,-10.431 0,-14.401 -1.923,-1.924 -4.48,-2.983 -7.201,-2.983 z"
   id="path214" />
		</g>
		<path
   style="fill:#8fcdf7"
   d="m 279.625,153.586 c -20.727,-20.727 -20.727,-54.452 0,-75.178 l 13.014,-13.014 c 20.727,-20.727 54.451,-20.726 75.178,0 l 6.801,6.801 c 20.727,20.727 20.727,54.452 0,75.178 l -13.014,13.014 c -20.727,20.727 -54.451,20.726 -75.178,0 z"
   id="path218" />
		<path
   style="fill:#f9763d"
   d="m 58.473,155.701 -5.982,5.982 c -3.281,3.281 -3.281,8.591 -0.008,11.865 l 19.746,-6.226 z"
   id="path220" />
		<polygon
   style="fill:#f9763d"
   points="99.568,394.562 113.714,388.733 129.332,404.351 136.374,431.369 "
   id="polygon222" />
		<path
   style="fill:#158acc"
   d="m 198.337,357.214 c -2.396,2.518 -6.104,6.272 -10.85,10.621 l -23.538,-23.538 -0.008,-0.008 c 2.236,-2.876 4.38,-5.86 6.379,-8.942 9.08,7.599 18.419,14.893 28.017,21.867 z"
   id="path224" />
		<path
   style="fill:#53aef9"
   d="m 163.949,344.296 23.538,23.538 c -3.8,3.495 -8.263,7.363 -13.238,11.285 l -21.738,-21.738 c 3.937,-4.059 7.813,-8.439 11.43,-13.093 z"
   id="path226" />
		<path
   style="fill:#53aef9"
   d="m 152.512,357.382 21.738,21.738 c -4.387,3.456 -9.179,6.951 -14.26,10.262 l -20.097,-20.097 c 4.104,-3.571 8.392,-7.554 12.619,-11.903 z"
   id="path228" />
		<path
   style="fill:#53aef9"
   d="m 139.892,369.284 20.097,20.097 c -4.952,3.212 -10.194,6.257 -15.618,8.904 l -18.113,-18.113 c 4.005,-2.952 8.69,-6.615 13.634,-10.888 z"
   id="path230" />
		<path
   style="fill:#53aef9"
   d="m 126.257,380.172 18.113,18.113 c -4.876,2.388 -9.911,4.463 -15.039,6.066 l -15.618,-15.618 c 0.001,0 5.097,-3.052 12.544,-8.561 z"
   id="path232" />
		<path
   style="fill:#d8b86f"
   d="m 360.488,138.739 -12.307,12.307 c -14.573,14.573 -38.211,14.573 -52.784,0 l -6.432,-6.432 c -14.573,-14.573 -14.573,-38.211 0,-52.784 l 12.307,-12.307 c 14.573,-14.573 38.211,-14.573 52.784,0 l 6.432,6.432 c 14.573,14.574 14.573,38.211 0,52.784 z"
   id="path234" />
		<path
   style="fill:#f7d789"
   d="m 351.08,129.332 -12.307,12.307 c -14.573,14.573 -34.455,18.328 -44.398,8.386 l -4.388,-4.388 c -9.943,-9.943 -6.187,-29.825 8.386,-44.398 L 310.68,88.932 c 14.573,-14.573 34.455,-18.328 44.398,-8.386 l 4.388,4.388 c 9.942,9.942 6.187,29.825 -8.386,44.398 z"
   id="path236" />
		<polygon
   style="fill:#f9763d"
   points="45.434,340.428 8.627,303.621 35.645,310.664 51.263,326.282 "
   id="polygon238" />
		<path
   style="fill:#53aef9"
   d="M 51.263,326.282 35.645,310.664 c 1.602,-5.127 3.678,-10.163 6.066,-15.039 l 18.113,18.113 c -5.509,7.448 -8.561,12.544 -8.561,12.544 z"
   id="path240" />
		<path
   style="fill:#158acc"
   d="m 82.79,241.651 c 6.974,9.598 14.26,18.945 21.86,28.025 -3.082,1.999 -6.066,4.143 -8.942,6.379 L 95.7,276.047 72.162,252.509 c 4.348,-4.746 8.11,-8.462 10.628,-10.858 z"
   id="path242" />
		<path
   style="fill:#53aef9"
   d="M 59.824,313.739 41.71,295.625 c 2.648,-5.425 5.692,-10.667 8.904,-15.618 l 20.097,20.097 c -4.272,4.944 -7.935,9.629 -10.887,13.635 z"
   id="path244" />
		<path
   style="fill:#53aef9"
   d="m 95.699,276.047 0.008,0.008 c -4.654,3.617 -9.034,7.493 -13.093,11.43 L 60.876,265.747 c 3.922,-4.975 7.79,-9.438 11.285,-13.238 z"
   id="path246" />
		<path
   style="fill:#53aef9"
   d="M 70.712,300.104 50.615,280.007 c 3.311,-5.082 6.806,-9.873 10.262,-14.26 l 21.738,21.738 c -4.35,4.226 -8.333,8.514 -11.903,12.619 z"
   id="path248" />
		<path
   style="fill:#44a1e0"
   d="m 331.25,298.906 c -2.152,-0.824 -4.196,-2.106 -5.936,-3.845 -6.615,-6.615 -6.608,-17.35 0.008,-23.966 4.677,-4.677 11.422,-6.051 17.312,-4.097 2.938,-9.56 5.127,-18.129 6.768,-25.354 3.502,-15.512 4.418,-24.896 4.418,-24.896 0.465,-3.09 0.717,-6.226 0.74,-9.362 l -4.09,-24.736 c -1.404,-3.937 -3.151,-7.775 -5.272,-11.483 l -0.008,-0.008 c -21.203,19.357 -54.096,18.785 -74.613,-1.732 -20.509,-20.509 -21.081,-53.402 -1.724,-74.605 -3.701,-2.113 -7.554,-3.876 -11.514,-5.288 l -24.736,-4.09 c -3.128,0.031 -6.234,0.282 -9.354,0.732 0,0 -9.392,0.923 -24.889,4.425 -8.133,1.831 -17.93,4.38 -28.94,7.882 l -21.249,7.454 -0.008,-0.008 c -27.101,10.422 -58.674,26.171 -89.689,49.77 l 7.332,6.188 0.832,0.71 5.593,4.723 c 0,0 43.529,-24.301 74.575,-24.751 l -0.069,0.069 -15.954,15.954 -62.336,62.336 c 4.616,7.027 9.392,13.94 14.344,20.723 6.974,9.598 14.26,18.945 21.86,28.025 9.949,11.903 20.425,23.34 31.382,34.296 10.957,10.957 22.394,21.432 34.289,31.374 9.08,7.599 18.419,14.894 28.017,21.867 6.783,4.937 13.696,9.713 20.73,14.337 0.008,0.008 0.008,0.008 0.015,0.015 l 62.336,-62.336 15.954,-15.954 0.046,-0.046 c -0.458,31.038 -24.744,74.536 -24.744,74.536 l 5.432,6.424 6.188,7.332 c 21.577,-28.336 36.577,-57.161 46.954,-82.615 z m -98.907,-39.469 -51.784,-51.784 47.077,-47.076 51.784,51.784 z"
   id="path250" />
		<path
   style="fill:#53aef9"
   d="m 326.627,284.391 -0.008,-0.008 7.454,-21.249 c 3.502,-11.01 6.05,-20.807 7.882,-28.94 0.015,-0.076 0.038,-0.145 0.053,-0.221 2.297,-10.155 3.296,-20.555 3.044,-30.97 l -0.641,-26.415 c -0.366,-1.251 -0.771,-2.48 -1.228,-3.685 -35.09,12.414 -93.84,-9.713 -76.078,-76.078 -1.213,-0.45 -2.449,-0.862 -3.701,-1.228 l -26.407,-0.649 c -10.415,-0.252 -20.822,0.74 -30.977,3.037 -0.069,0.023 -0.145,0.038 -0.221,0.053 -8.133,1.831 -17.93,4.38 -28.94,7.882 l -21.249,7.454 -0.008,-0.008 c -26.895,10.339 -58.186,25.926 -88.965,49.228 l 5.593,4.723 c 0,0 43.529,-24.301 74.575,-24.751 l -6.493,21.371 c 1.373,0.336 -62.062,66.792 -62.062,66.792 3.861,6.272 7.874,12.421 12.063,18.441 5.898,8.523 12.101,16.786 18.617,24.782 7.454,9.164 15.321,17.976 23.553,26.422 1.175,1.206 2.358,2.403 3.548,3.594 1.19,1.19 2.388,2.373 3.594,3.548 8.446,8.233 17.259,16.099 26.422,23.554 7.996,6.516 16.252,12.727 24.774,18.625 6.02,4.174 12.17,8.187 18.441,12.048 0.008,0.008 0.008,0.008 0.015,0.015 l 66.22,-66.22 c 0.038,1.396 21.928,-2.35 21.928,-2.35 v 0.015 c 0,0.015 0,0.015 -0.008,0.023 -0.084,5.547 -0.923,11.483 -2.251,17.511 -0.168,0.748 -0.336,1.495 -0.519,2.243 -0.412,1.724 -0.862,3.441 -1.343,5.158 -0.275,0.992 -0.557,1.976 -0.847,2.953 -3.342,11.185 -7.828,22.005 -11.681,30.405 -0.313,0.694 -0.626,1.358 -0.923,2.007 -0.748,1.602 -1.465,3.098 -2.144,4.463 -0.267,0.572 -0.534,1.114 -0.793,1.633 -0.443,0.9 -0.862,1.732 -1.259,2.495 -0.13,0.267 -0.252,0.511 -0.382,0.748 -0.244,0.488 -0.473,0.931 -0.694,1.35 -1.19,2.289 -1.908,3.571 -1.908,3.571 l 4.723,5.593 c 23.304,-30.78 38.892,-62.07 49.231,-88.965 z m -97.648,-28.322 -45.047,-45.047 47.076,-47.076 45.047,45.047 z"
   id="path252" />
		<path
   style="fill:#f9e33d"
   d="m 180.155,109.219 -14.352,14.352 -17.633,-17.633 -0.008,-0.008 c 6.47,-2.487 12.689,-4.677 18.571,-6.592 0.908,-0.298 1.801,-0.58 2.686,-0.855 z"
   id="path254" />
		<path
   style="fill:#f9e33d"
   d="m 331.25,298.906 c -2.152,-0.824 -4.196,-2.106 -5.936,-3.845 -6.615,-6.615 -6.608,-17.35 0.008,-23.966 4.677,-4.677 11.422,-6.051 17.312,-4.097 -0.618,2.037 -1.274,4.128 -1.976,6.264 -2.61,8.011 -5.708,16.618 -9.408,25.644 z"
   id="path256" />
		<path
   style="fill:#666666"
   d="m 324.015,180.929 c -14.895,0 -29.785,-5.668 -41.125,-17.007 l -6.801,-6.801 c -22.676,-22.676 -22.676,-59.573 0,-82.25 l 13.014,-13.014 c 10.968,-10.968 25.574,-17.009 41.125,-17.009 10e-4,0 0,0 0,0 15.551,0 30.156,6.041 41.125,17.01 l 6.801,6.801 c 22.676,22.677 22.676,59.573 0,82.25 l -13.014,13.014 c -11.338,11.336 -26.234,17.006 -41.125,17.006 z m 6.212,-126.08 c -12.88,0 -24.974,5 -34.053,14.08 L 283.16,81.943 c -18.777,18.777 -18.777,49.33 0,68.107 l 6.801,6.801 c 18.778,18.778 49.332,18.778 68.107,0 l 13.014,-13.014 c 18.777,-18.777 18.777,-49.33 0,-68.107 l -6.801,-6.801 c -9.08,-9.079 -21.174,-14.08 -34.054,-14.08 z"
   id="path258" />
		<path
   style="fill:#666666"
   d="m 321.789,166.976 c -11.307,0 -21.935,-4.401 -29.928,-12.394 l -6.432,-6.432 c -16.502,-16.502 -16.502,-43.353 0,-59.855 l 12.307,-12.307 c 7.993,-7.993 18.621,-12.395 29.928,-12.395 11.307,0 21.935,4.402 29.927,12.395 l 6.432,6.432 c 16.502,16.502 16.502,43.353 0,59.855 l -12.307,12.307 c -7.993,7.992 -18.621,12.394 -29.927,12.394 z m 5.875,-93.382 c -8.635,0 -16.752,3.362 -22.856,9.466 l -12.307,12.307 c -12.603,12.603 -12.603,33.11 0,45.713 l 6.432,6.432 c 6.104,6.104 14.221,9.465 22.856,9.465 8.635,0 16.752,-3.361 22.856,-9.465 l 12.307,-12.307 c 12.603,-12.603 12.603,-33.11 0,-45.713 L 350.52,83.06 c -6.104,-6.105 -14.221,-9.466 -22.856,-9.466 z"
   id="path260" />
		<path
   style="fill:#333333"
   d="m 51.262,331.281 c -1.317,0 -2.592,-0.521 -3.535,-1.463 L 32.109,314.199 c -1.315,-1.315 -1.792,-3.251 -1.237,-5.027 1.596,-5.109 3.732,-10.407 6.348,-15.747 2.562,-5.248 5.658,-10.68 9.2,-16.14 3.177,-4.874 6.717,-9.794 10.53,-14.633 3.624,-4.597 7.503,-9.148 11.532,-13.529 4.498,-4.908 8.39,-8.743 10.862,-11.095 l 6.893,7.245 c -2.359,2.244 -6.076,5.907 -10.389,10.613 -3.863,4.201 -7.577,8.558 -11.044,12.955 -3.627,4.604 -6.992,9.279 -10,13.895 -3.317,5.113 -6.212,10.19 -8.6,15.082 -1.908,3.896 -3.531,7.747 -4.842,11.49 l 9.061,9.062 c 1.397,-2.071 3.201,-4.657 5.382,-7.606 3.52,-4.775 7.265,-9.464 11.125,-13.93 4.027,-4.63 8.129,-8.979 12.2,-12.936 4.456,-4.322 9,-8.288 13.51,-11.792 3.099,-2.409 6.225,-4.638 9.289,-6.625 l 2.707,4.173 3.558,3.55 c -0.248,0.248 -0.529,0.477 -0.823,0.667 -2.827,1.833 -5.718,3.896 -8.595,6.132 -4.223,3.281 -8.489,7.006 -12.68,11.071 -3.868,3.76 -7.776,7.904 -11.611,12.313 -3.681,4.259 -7.263,8.744 -10.635,13.319 -5.279,7.137 -8.268,12.098 -8.297,12.147 -0.792,1.32 -2.149,2.203 -3.677,2.391 -0.206,0.025 -0.41,0.037 -0.614,0.037 z"
   id="path262" />
		<path
   style="fill:#666666"
   d="m 314.426,114.967 c -1.28,0 -2.559,-0.488 -3.536,-1.464 -1.953,-1.953 -1.953,-5.119 0,-7.071 l 14.817,-14.817 c 1.953,-1.953 5.118,-1.953 7.071,0 1.953,1.953 1.953,5.119 0,7.071 l -14.817,14.817 c -0.976,0.976 -2.255,1.464 -3.535,1.464 z"
   id="path264" />
		<path
   style="fill:#666666"
   d="m 330.044,130.585 c -1.28,0 -2.559,-0.488 -3.536,-1.464 -1.953,-1.953 -1.953,-5.119 0,-7.071 l 14.817,-14.817 c 1.954,-1.952 5.119,-1.952 7.071,0 1.953,1.953 1.953,5.118 0,7.071 l -14.817,14.817 c -0.976,0.976 -2.256,1.464 -3.535,1.464 z"
   id="path266" />
		<path
   style="fill:#333333"
   d="m 52.484,178.547 c -1.28,0 -2.56,-0.488 -3.536,-1.465 -5.218,-5.219 -5.214,-13.713 0.008,-18.936 l 5.982,-5.982 c 1.838,-1.837 4.777,-1.96 6.762,-0.284 l 13.756,11.621 c 2.109,1.782 2.375,4.937 0.593,7.046 -1.782,2.11 -4.937,2.375 -7.046,0.593 l -10.245,-8.654 -2.731,2.731 c -1.324,1.324 -1.327,3.474 -0.008,4.794 1.953,1.953 1.952,5.119 0,7.071 -0.976,0.977 -2.256,1.465 -3.535,1.465 z"
   id="path268" />
		<path
   style="fill:#f9763d"
   d="m 284.295,381.523 -5.982,5.982 c -3.281,3.281 -8.591,3.281 -11.865,0.008 l 6.226,-19.746 z"
   id="path270" />
		<path
   style="fill:#333333"
   d="m 272.374,394.959 c -3.427,0 -6.853,-1.303 -9.46,-3.911 -1.953,-1.952 -1.953,-5.118 0,-7.071 1.952,-1.953 5.119,-1.954 7.071,0 1.321,1.319 3.471,1.315 4.794,-0.008 l 2.731,-2.731 -8.654,-10.245 c -1.782,-2.109 -1.516,-5.264 0.593,-7.046 2.108,-1.781 5.264,-1.517 7.046,0.593 l 11.621,13.757 c 1.677,1.985 1.553,4.924 -0.284,6.762 l -5.982,5.982 c -2.613,2.612 -6.045,3.918 -9.476,3.918 z"
   id="path272" />
		<path
   style="fill:#333333"
   d="m 284.296,386.519 c -1.471,0 -2.87,-0.648 -3.821,-1.775 l -11.619,-13.755 c -1.344,-1.591 -1.56,-3.849 -0.544,-5.667 0.021,-0.037 0.707,-1.267 1.835,-3.437 0.219,-0.415 0.432,-0.826 0.658,-1.279 0.028,-0.057 0.058,-0.113 0.088,-0.168 0.082,-0.15 0.164,-0.31 0.241,-0.474 0.028,-0.06 0.058,-0.12 0.089,-0.179 0.381,-0.732 0.783,-1.53 1.208,-2.394 0.254,-0.508 0.502,-1.011 0.75,-1.541 0.017,-0.036 0.035,-0.072 0.052,-0.108 0.662,-1.333 1.362,-2.791 2.091,-4.354 l 0.329,-0.712 c 0.186,-0.401 0.376,-0.811 0.565,-1.232 4.863,-10.603 8.71,-20.612 11.451,-29.784 0.279,-0.939 0.552,-1.894 0.818,-2.855 0.494,-1.764 0.917,-3.39 1.298,-4.985 0.182,-0.745 0.343,-1.461 0.504,-2.178 0.208,-0.944 0.401,-1.875 0.579,-2.793 l -68.25,68.25 c -1.763,1.762 -4.513,1.934 -6.469,0.515 -7.076,-4.655 -14.057,-9.485 -20.754,-14.359 -9.599,-6.975 -19.116,-14.403 -28.284,-22.077 -10.682,-8.928 -21.109,-18.381 -30.991,-28.094 -1.206,-1.175 -2.42,-2.373 -3.625,-3.579 -1.205,-1.205 -2.403,-2.418 -3.593,-3.639 -9.695,-9.863 -19.151,-20.293 -28.089,-30.985 -7.607,-9.088 -15.033,-18.608 -22.069,-28.292 -4.888,-6.696 -9.762,-13.737 -14.479,-20.917 -1.301,-1.981 -1.033,-4.604 0.644,-6.281 l 68.28,-68.28 c -27.312,5.298 -58.162,22.372 -58.523,22.574 -1.817,1.013 -4.073,0.796 -5.663,-0.546 L 55.248,159.52 c -1.16,-0.979 -1.812,-2.431 -1.774,-3.948 0.039,-1.517 0.763,-2.934 1.971,-3.853 27.316,-20.784 57.907,-37.76 90.922,-50.458 6.238,-2.398 12.569,-4.645 18.818,-6.68 0.924,-0.303 1.842,-0.593 2.751,-0.875 9.858,-3.136 19.735,-5.826 29.325,-7.984 3.682,-0.832 36.675,-7.982 59.497,-2.389 2.461,0.603 4.082,2.952 3.772,5.467 -3.084,25.057 5.373,49.654 23.203,67.483 17.79,17.791 42.337,26.259 67.332,23.224 2.533,-0.302 4.884,1.337 5.469,3.816 4.516,19.149 0.499,47.242 -2.256,59.421 -1.95,8.589 -4.26,17.241 -6.866,25.72 -0.667,2.202 -1.325,4.287 -2.005,6.356 -2.87,8.813 -6.079,17.558 -9.531,25.98 -12.361,30.32 -28.378,58.501 -47.603,83.749 -0.919,1.207 -2.336,1.931 -3.853,1.969 -0.04,0.001 -0.082,0.001 -0.124,0.001 z m -5.608,-19.386 5.37,6.352 c 17.038,-23.25 31.342,-48.944 42.563,-76.469 3.363,-8.203 6.485,-16.713 9.283,-25.305 0.66,-2.008 1.295,-4.021 1.945,-6.167 2.539,-8.26 4.783,-16.668 6.677,-25.01 2.744,-12.128 5.557,-34.583 3.094,-50.654 -26.447,1.874 -52.083,-7.654 -70.957,-26.527 -18.925,-18.924 -28.447,-44.636 -26.509,-71.156 -16.571,-2.66 -39.179,0.676 -50.69,3.279 -9.314,2.097 -18.911,4.71 -28.528,7.77 -0.894,0.277 -1.762,0.552 -2.645,0.841 -6.093,1.984 -12.259,4.172 -18.334,6.508 -30.127,11.587 -58.17,26.826 -83.447,45.343 l 6.345,5.364 c 10.65,-5.611 46.416,-23.336 73.877,-23.734 1.995,-0.038 3.885,1.178 4.678,3.053 0.793,1.875 0.369,4.043 -1.07,5.482 l -75.47,75.469 c 3.92,5.868 7.932,11.615 11.958,17.129 6.909,9.51 14.193,18.848 21.655,27.764 8.769,10.489 18.042,20.719 27.566,30.407 1.175,1.206 2.342,2.388 3.518,3.563 1.175,1.176 2.358,2.343 3.548,3.502 9.706,9.541 19.933,18.812 30.412,27.571 8.996,7.53 18.332,14.816 27.75,21.659 5.56,4.046 11.319,8.061 17.165,11.967 l 75.443,-75.442 c 1.44,-1.44 3.608,-1.863 5.484,-1.069 1.875,0.793 3.082,2.645 3.051,4.681 -0.084,5.531 -0.88,11.758 -2.368,18.51 -0.179,0.799 -0.354,1.578 -0.545,2.357 -0.404,1.694 -0.859,3.443 -1.385,5.317 -0.278,1.007 -0.569,2.021 -0.868,3.027 -2.875,9.625 -6.888,20.074 -11.93,31.066 -0.19,0.423 -0.396,0.866 -0.597,1.3 l -0.326,0.706 c -0.771,1.651 -1.497,3.166 -2.185,4.551 -0.278,0.593 -0.555,1.156 -0.825,1.696 -0.432,0.878 -0.854,1.715 -1.254,2.485 -0.138,0.289 -0.283,0.571 -0.428,0.839 -0.246,0.491 -0.479,0.94 -0.703,1.366 -0.11,0.211 -0.216,0.414 -0.318,0.609 z"
   id="path274" />
		<path
   style="fill:#333333"
   d="m 129.333,409.351 c -1.306,0 -2.584,-0.512 -3.536,-1.464 l -15.619,-15.618 c -1.089,-1.089 -1.615,-2.62 -1.427,-4.148 0.189,-1.529 1.072,-2.885 2.394,-3.677 0.047,-0.029 5.009,-3.017 12.139,-8.291 4.578,-3.375 9.063,-6.957 13.339,-10.651 4.397,-3.825 8.541,-7.733 12.304,-11.604 4.061,-4.187 7.785,-8.453 11.066,-12.676 2.235,-2.876 4.298,-5.768 6.132,-8.595 l 8.391,5.441 c -1.988,3.065 -4.218,6.191 -6.626,9.29 -3.504,4.51 -7.47,9.054 -11.788,13.505 -3.96,4.075 -8.309,8.176 -12.927,12.194 -4.482,3.874 -9.172,7.618 -13.95,11.14 -2.945,2.179 -5.529,3.981 -7.599,5.377 l 9.062,9.061 c 3.742,-1.311 7.592,-2.934 11.484,-4.839 4.897,-2.391 9.975,-5.286 15.096,-8.609 4.607,-3.002 9.282,-6.367 13.887,-9.995 4.401,-3.47 8.757,-7.184 12.947,-11.038 4.7,-4.307 8.365,-8.025 10.613,-10.387 l 7.277,6.859 -0.007,0.008 c -2.381,2.502 -6.218,6.395 -11.12,10.887 -4.369,4.018 -8.92,7.898 -13.52,11.525 -4.84,3.813 -9.761,7.354 -14.626,10.524 -5.469,3.548 -10.901,6.644 -16.155,9.208 -5.336,2.613 -10.634,4.749 -15.741,6.345 -0.49,0.154 -0.992,0.228 -1.49,0.228 z"
   id="path276" />
		<path
   style="fill:#333333"
   d="m 45.434,345.428 c -1.313,0 -2.588,-0.518 -3.536,-1.464 L 5.092,307.157 c -1.596,-1.596 -1.925,-4.063 -0.803,-6.021 1.121,-1.958 3.416,-2.922 5.6,-2.353 l 27.018,7.042 -2.522,9.677 -9.204,-2.399 18.488,18.487 2.972,-7.213 9.246,3.81 -5.829,14.146 c -0.637,1.546 -2.004,2.671 -3.643,2.998 -0.327,0.065 -0.656,0.097 -0.981,0.097 z"
   id="path278" />
		<path
   style="fill:#333333"
   d="m 136.376,436.369 c -1.294,0 -2.574,-0.501 -3.537,-1.464 L 96.032,398.098 c -1.182,-1.182 -1.695,-2.876 -1.367,-4.516 0.327,-1.639 1.452,-3.006 2.998,-3.643 l 14.146,-5.829 3.81,9.246 -7.213,2.972 18.487,18.488 -2.399,-9.204 9.677,-2.522 7.042,27.018 c 0.569,2.184 -0.395,4.478 -2.353,5.6 -0.777,0.444 -1.633,0.661 -2.484,0.661 z"
   id="path280" />
		<path
   style="fill:#333333"
   d="m 92.164,279.583 -23.538,-23.539 3.422,-3.422 3.526,-3.769 c 0.039,0.037 0.085,0.081 0.124,0.119 l 23.538,23.539 z"
   id="path282" />
		<polygon
   style="fill:#333333"
   points="160.413,347.832 167.485,340.761 191.023,364.299 183.959,371.378 "
   id="polygon284" />
		<polygon
   style="fill:#333333"
   points="57.341,269.282 64.405,262.203 86.15,283.948 79.086,291.028 "
   id="polygon286" />
		<path
   style="fill:#333333"
   d="m 162.2,372.071 c -1.28,0 -2.559,-0.488 -3.536,-1.464 l -9.675,-9.676 c -1.915,-1.899 -1.985,-4.993 -0.129,-6.972 1.889,-2.015 5.049,-2.121 7.063,-0.231 0.039,0.037 0.085,0.082 0.124,0.119 l 9.688,9.689 c 1.953,1.953 1.953,5.119 0,7.071 -0.976,0.975 -2.255,1.464 -3.535,1.464 z"
   id="path288" />
		<path
   style="fill:#333333"
   d="m 70.714,305.11 c -1.278,0 -2.555,-0.487 -3.53,-1.462 L 55.99,292.453 c -1.953,-1.953 -1.953,-5.119 0,-7.071 1.954,-1.952 5.119,-1.952 7.071,0 l 11.187,11.188 c 1.953,1.953 1.956,5.122 0.003,7.075 -0.977,0.976 -2.258,1.465 -3.537,1.465 z"
   id="path290" />
		<path
   style="fill:#333333"
   d="M 156.453,392.917 136.356,372.82 c -0.038,-0.038 -0.075,-0.077 -0.112,-0.116 l 3.769,-3.542 3.414,-3.414 20.097,20.097 z"
   id="path292" />
		
			<rect
   x="37.957001"
   y="299.677"
   transform="matrix(-0.7071,-0.7071,0.7071,-0.7071,-128.7776,556.0127)"
   style="fill:#333333"
   width="25.615999"
   height="10"
   id="rect294" />
		
			<rect
   x="122.507"
   y="384.22601"
   transform="matrix(-0.7071,-0.7071,0.7071,-0.7071,-44.2258,760.1327)"
   style="fill:#333333"
   width="25.617001"
   height="10"
   id="rect296" />
		<path
   style="fill:#333333"
   d="m 165.803,128.571 c -1.28,0 -2.559,-0.488 -3.536,-1.464 l -17.633,-17.633 7.071,-7.071 14.097,14.097 7.281,-7.281 -7.2,-7.2 7.071,-7.071 10.735,10.735 c 0.938,0.938 1.464,2.209 1.464,3.536 0,1.327 -0.527,2.598 -1.464,3.536 l -14.352,14.352 c -0.975,0.976 -2.254,1.464 -3.534,1.464 z"
   id="path298" />
		<path
   style="fill:#333333"
   d="m 329.462,303.575 c -2.908,-1.113 -5.493,-2.789 -7.684,-4.979 -8.555,-8.555 -8.551,-22.478 0.008,-31.037 5.903,-5.902 14.494,-7.936 22.421,-5.308 l -3.147,9.492 c -4.314,-1.43 -8.991,-0.324 -12.203,2.887 -4.66,4.66 -4.663,12.239 -0.007,16.895 1.191,1.191 2.6,2.104 4.188,2.711 z"
   id="path300" />
		<path
   style="fill:#ffffff"
   d="m 232.343,231.081 c -0.64,0 -1.28,-0.244 -1.768,-0.732 -0.977,-0.976 -0.977,-2.559 0,-3.535 l 16.221,-16.221 c 0.976,-0.977 2.56,-0.977 3.535,0 0.977,0.976 0.977,2.559 0,3.535 l -16.221,16.221 c -0.487,0.488 -1.127,0.732 -1.767,0.732 z"
   id="path302" />
		<path
   style="fill:#333333"
   d="m 297.442,298.203 c -1.28,0 -2.559,-0.488 -3.536,-1.464 l -9.324,-9.324 c -1.953,-1.953 -1.953,-5.119 0,-7.071 1.954,-1.952 5.119,-1.952 7.071,0 l 9.324,9.324 c 1.953,1.953 1.953,5.119 0,7.071 -0.976,0.976 -2.256,1.464 -3.535,1.464 z"
   id="path304" />
		<path
   style="fill:#333333"
   d="m 277.646,278.407 c -1.28,0 -2.559,-0.488 -3.536,-1.464 l -17.758,-17.758 c -1.953,-1.953 -1.953,-5.119 0,-7.071 1.953,-1.952 5.118,-1.952 7.071,0 l 17.758,17.758 c 1.953,1.953 1.953,5.119 0,7.071 -0.976,0.976 -2.255,1.464 -3.535,1.464 z"
   id="path306" />
		<path
   style="fill:#333333"
   d="m 182.826,183.587 c -1.28,0 -2.559,-0.488 -3.536,-1.464 l -36.021,-36.021 c -1.953,-1.953 -1.953,-5.119 0,-7.071 1.953,-1.952 5.118,-1.952 7.071,0 l 36.021,36.021 c 1.953,1.953 1.953,5.119 0,7.071 -0.976,0.975 -2.255,1.464 -3.535,1.464 z"
   id="path308" />
		<path
   style="fill:#158acc"
   d="m 279.42,212.36 -47.077,47.076 -51.784,-51.784 47.076,-47.076 z"
   id="path310" />
		<path
   style="fill:#dd582a"
   d="m 256.21,218.449 -17.778,17.778 c -3.365,3.365 -8.813,3.365 -12.177,0 L 203.77,213.742 c -3.365,-3.365 -3.365,-8.813 0,-12.177 l 17.778,-17.778 c 3.365,-3.365 8.813,-3.365 12.177,0 l 22.485,22.485 c 3.365,3.364 3.365,8.812 0,12.177 z"
   id="path312" />
		<path
   style="fill:#f73e3e"
   d="m 249.688,216.349 -13.356,13.356 c -2.528,2.528 -6.621,2.528 -9.149,0 L 210.29,212.812 c -2.528,-2.528 -2.528,-6.621 0,-9.149 l 13.356,-13.356 c 2.528,-2.528 6.621,-2.528 9.149,0 l 16.893,16.893 c 2.528,2.528 2.528,6.621 0,9.149 z"
   id="path314" />
		<path
   style="fill:#333333"
   d="m 232.343,264.437 c -1.28,0 -2.559,-0.488 -3.536,-1.464 l -51.784,-51.784 c -1.953,-1.953 -1.953,-5.119 0,-7.071 l 25.341,-25.341 c 1.953,-1.952 5.118,-1.952 7.071,0 1.953,1.953 1.953,5.119 0,7.071 l -21.806,21.806 44.713,44.713 40.005,-40.005 -44.713,-44.713 -6.374,6.374 c -1.953,1.952 -5.118,1.952 -7.071,0 -1.953,-1.953 -1.953,-5.119 0,-7.071 l 9.909,-9.909 c 1.953,-1.952 5.118,-1.952 7.071,0 l 51.784,51.784 c 1.953,1.953 1.953,5.119 0,7.071 l -47.077,47.077 c -0.973,0.973 -2.253,1.462 -3.533,1.462 z"
   id="path316" />
		<path
   style="fill:#333333"
   d="m 231.898,238.304 c -3.068,0 -6.136,-1.168 -8.472,-3.503 l -18.23,-18.23 c -2.264,-2.264 -3.511,-5.272 -3.511,-8.472 0,-3.2 1.247,-6.208 3.511,-8.472 l 14.413,-14.414 c 4.672,-4.671 12.272,-4.671 16.944,0 l 18.23,18.23 c 4.671,4.671 4.671,12.273 0,16.944 l -14.414,14.414 c -2.335,2.335 -5.402,3.503 -8.471,3.503 z m -3.817,-46.6 c -0.507,0 -1.015,0.193 -1.401,0.58 l -14.414,14.414 v 0 c -0.506,0.506 -0.582,1.095 -0.582,1.401 0,0.306 0.076,0.895 0.582,1.401 l 18.231,18.23 c 0.772,0.772 2.029,0.772 2.802,0 l 14.414,-14.414 c 0.772,-0.772 0.772,-2.029 0,-2.802 l -18.23,-18.23 c -0.387,-0.387 -0.894,-0.58 -1.402,-0.58 z"
   id="path318" />
		<path
   style="fill:#333333"
   d="m 229.386,139.198 c -0.111,0 -0.223,-0.003 -0.335,-0.011 -2.755,-0.183 -4.841,-2.564 -4.659,-5.319 l 3.169,-47.91 c 0.182,-2.755 2.557,-4.843 5.319,-4.659 2.755,0.182 4.841,2.564 4.659,5.319 l -3.169,47.91 c -0.174,2.643 -2.373,4.67 -4.984,4.67 z"
   id="path320" />
		<path
   style="fill:#333333"
   d="m 227.641,165.573 c -0.111,0 -0.223,-0.003 -0.335,-0.011 -2.755,-0.183 -4.841,-2.564 -4.659,-5.319 l 0.458,-6.933 c 0.182,-2.755 2.564,-4.842 5.319,-4.659 2.755,0.183 4.841,2.564 4.659,5.319 l -0.458,6.933 c -0.174,2.643 -2.373,4.67 -4.984,4.67 z"
   id="path322" />
		<path
   style="fill:#333333"
   d="m 68.439,225.929 c -2.499,0 -4.658,-1.87 -4.959,-4.413 -0.325,-2.742 1.635,-5.229 4.377,-5.553 l 71.414,-8.457 c 2.734,-0.324 5.228,1.635 5.553,4.377 0.325,2.742 -1.635,5.229 -4.377,5.553 l -71.414,8.457 c -0.199,0.024 -0.398,0.036 -0.594,0.036 z"
   id="path324" />
		<path
   style="fill:#333333"
   d="m 160.019,215.085 c -2.499,0 -4.658,-1.87 -4.959,-4.413 -0.325,-2.742 1.635,-5.229 4.377,-5.553 l 20.534,-2.432 c 2.739,-0.321 5.228,1.635 5.553,4.377 0.325,2.742 -1.635,5.229 -4.377,5.553 l -20.534,2.432 c -0.2,0.024 -0.398,0.036 -0.594,0.036 z"
   id="path326" />
		<path
   style="fill:#333333"
   d="m 279.416,217.357 c -2.611,0 -4.809,-2.027 -4.984,-4.67 -0.182,-2.755 1.904,-5.137 4.659,-5.319 l 43.509,-2.88 c 2.759,-0.18 5.137,1.904 5.319,4.659 0.182,2.755 -1.904,5.137 -4.659,5.319 l -43.509,2.88 c -0.113,0.007 -0.224,0.011 -0.335,0.011 z"
   id="path328" />
		<path
   style="fill:#333333"
   d="m 339.282,213.394 c -2.611,0 -4.809,-2.027 -4.984,-4.67 -0.182,-2.755 1.904,-5.137 4.659,-5.319 l 14.243,-0.943 c 2.756,-0.175 5.137,1.904 5.319,4.659 0.182,2.755 -1.904,5.137 -4.659,5.319 l -14.243,0.943 c -0.112,0.007 -0.224,0.011 -0.335,0.011 z"
   id="path330" />
		<path
   style="fill:#333333"
   d="m 219.074,376.551 c -0.196,0 -0.395,-0.012 -0.594,-0.035 -2.742,-0.325 -4.702,-2.811 -4.377,-5.553 l 4.323,-36.508 c 0.325,-2.742 2.811,-4.701 5.553,-4.377 2.742,0.325 4.702,2.811 4.377,5.553 l -4.323,36.508 c -0.301,2.542 -2.461,4.412 -4.959,4.412 z"
   id="path332" />
		<path
   style="fill:#333333"
   d="m 225.55,321.865 c -0.196,0 -0.395,-0.012 -0.594,-0.035 -2.742,-0.325 -4.702,-2.811 -4.377,-5.553 l 6.8,-57.428 c 0.325,-2.742 2.807,-4.701 5.553,-4.377 2.742,0.325 4.702,2.811 4.377,5.553 l -6.8,57.428 c -0.302,2.542 -2.461,4.412 -4.959,4.412 z"
   id="path334" />
	</g>
	<g
   id="g342">
		
		
	</g>
	
</g>
<g
   id="g352">
</g>
<g
   id="g354">
</g>
<g
   id="g356">
</g>
<g
   id="g358">
</g>
<g
   id="g360">
</g>
<g
   id="g362">
</g>
<g
   id="g364">
</g>
<g
   id="g366">
</g>
<g
   id="g368">
</g>
<g
   id="g370">
</g>
<g
   id="g372">
</g>
<g
   id="g374">
</g>
<g
   id="g376">
</g>
<g
   id="g378">
</g>
<g
   id="g380">
</g>
</svg>
