<?xml version="1.0" encoding="utf-8"?>
<!-- Svg Vector Icons : http://www.onlinewebfonts.com/icon -->
<!DOCTYPE svg PUBLIC "-//W3C//DTD SVG 1.1//EN" "http://www.w3.org/Graphics/SVG/1.1/DTD/svg11.dtd">
<svg version="1.1" fill="#84cc16" xmlns="http://www.w3.org/2000/svg" xmlns:xlink="http://www.w3.org/1999/xlink" x="0px" y="0px" viewBox="0 0 1000 1000" enable-background="new 0 0 1000 1000" xml:space="preserve">
<metadata> Svg Vector Icons : http://www.onlinewebfonts.com/icon </metadata>
<g><g transform="translate(0.000000,511.000000) scale(0.100000,-0.100000)"><path d="M4642,3148.9c-228.2-31.3-465.4-89.5-671.2-161.1c-718.2-255.1-1355.9-812.2-1698.2-1487.9c-38-76.1-87.3-143.2-107.4-149.9c-22.4-4.5-149.9-31.3-286.4-58.2c-566.1-109.6-1056.1-255.1-1362.6-400.5C209.6,745.9,100,636.3,100,477.4c0-78.3,15.7-102.9,118.6-203.6C431.1,67.9,981.6-158,1670.7-319.1l304.3-71.6l38-170c125.3-563.8,407.2-1071.7,827.9-1494.6c434.1-434.1,942-707,1561.7-841.3c324.4-67.1,870.4-67.1,1194.8,0c619.8,132,1125.4,405,1561.7,843.5c420.6,418.4,702.6,926.3,827.9,1492.4l38,170l304.3,71.6C9018.4-158,9568.9,67.9,9781.4,273.8C9891,379,9900,396.8,9900,493.1c0,91.7-11.2,116.4-89.5,194.7c-208.1,208.1-861.4,443-1689.3,604.1c-134.2,26.9-264,53.7-286.4,58.2c-20.1,6.7-69.4,69.4-102.9,141c-342.3,677.9-991.2,1244-1709.4,1499.1C5613.1,3133.2,5024.6,3202.6,4642,3148.9z M3928.3,2298.7c344.6-35.8,642.1-100.7,1004.6-223.7c597.4-201.4,680.2-212.6,1564-212.6h767.4l82.8-114.1c91.7-125.3,234.9-387.1,221.5-400.5c-24.6-26.9-872.6-82.8-1407.3-94c-971.1-20.1-1329,29.1-1722.8,234.9c-358,190.2-729.4,288.6-1333.5,355.8c-187.9,20.1-342.3,44.7-342.3,53.7c0,6.7,91.7,105.2,203.6,219.3l203.6,203.6h264C3579.2,2321,3800.7,2309.9,3928.3,2298.7z M2104.8,1108.3c-116.4-391.6-170-724.9-170-1042.6v-187.9l-71.6,15.7c-259.5,55.9-700.3,241.6-812.2,340.1C907.7,361,869.7,488.6,939,618.3c69.4,138.7,355.7,304.3,727.2,425.1C2080.1,1175.5,2127.1,1182.2,2104.8,1108.3z M8141.4,1101.6c447.5-120.8,794.3-299.8,903.9-458.7c127.5-187.9,6.7-380.4-333.4-534.7c-154.4-69.4-559.4-203.6-613.1-203.6c-26.9,0-33.6,35.8-33.6,174.5c0,304.3-55.9,642.2-170,1029.2C7877.3,1171,7893,1171,8141.4,1101.6z M3353.2,430.4c590.7-85,1031.5-109.6,1534.9-87.3c239.4,11.2,729.4,20.1,1085.2,17.9c671.2,0,942-22.4,1595.3-125.3l297.6-47l-6.7-170.1l-6.7-170l-123.1-26.9c-237.2-53.7-1044.9-161.1-1499.1-199.1c-859.2-71.6-2179.3-51.5-3065.3,49.2c-322.2,35.8-989,141-1006.9,158.9c-17.9,17.9-13.4,590.7,6.7,702.6l17.9,100.7l393.8-73.8C2796.1,519.9,3145.2,461.7,3353.2,430.4z M2644-498.1c1432-201.4,3280.1-201.4,4712.1,0c174.5,24.6,351.3,51.5,391.6,58.2c71.6,13.4,73.8,13.4,58.2-49.2c-31.3-125.3-120.8-391.6-190.2-554.9l-69.4-163.3l-51.5,49.2c-62.6,64.9-114.1,71.6-771.9,100.7c-288.6,11.2-626.5,38-749.6,55.9c-429.6,62.6-771.9,40.3-1505.8-102.9c-519.1-100.7-664.5-109.6-749.5-42.5c-76.1,60.4-210.3,58.2-541.5-11.2c-460.9-96.2-675.7-69.4-787.6,96.2c-51.5,80.5-147.7,351.3-181.2,525.8l-22.4,109.6l71.6-13.4C2294.9-446.7,2469.4-473.5,2644-498.1z M3552.4-1563.2c138.7-20.1,407.2-80.5,597.4-136.5c190.2-53.7,443-114.1,559.4-134.2c286.4-47,859.2-47,1420.8,4.5c449.7,40.3,888.3,38,930.8-4.5c35.8-35.8-286.4-328.9-530.3-481c-76.1-49.2-143.2-64.9-413.9-94c-579.5-64.9-848-80.5-1315.6-82.8c-588.5,0-776.4,31.3-1098.6,179c-129.8,60.4-297.6,127.5-373.7,147.7c-125.3,35.8-158.9,58.2-335.6,234.9c-109.6,109.6-230.4,243.9-270.7,299.8l-73.8,102.9h326.7C3158.6-1527.4,3411.4-1543,3552.4-1563.2z"/></g></g>
</svg>